<?xml version="1.0"?>
<svg width="640.0000000000001" height="480" xmlns="http://www.w3.org/2000/svg" xmlns:svg="http://www.w3.org/2000/svg">
 <!-- Created with SVG-edit - http://svg-edit.googlecode.com/ -->
 <g display="none">
  <title>6 sided</title>
  <g id="svg_165">
   <g id="svg_148">
    <g stroke="null" transform="rotate(-110.22142028808594 43.86718750000001,106.17681884765625) " id="svg_80">
     <path stroke="#000000" id="svg_60" d="m41.68592,126.662068c0,0 -10.906258,-23.266685 -10.906258,-23.266685c0,0 13.08751,-31.991698 13.006755,-32.234066c-0.080755,-0.242368 13.168265,32.597608 13.08751,32.355234c-0.080755,-0.242374 -10.09842,22.781975 -10.179175,22.539601c-0.080755,-0.242374 -5.008833,0.605916 -5.008833,0.605916z" stroke-linecap="square" stroke-linejoin="round" stroke-dasharray="null" stroke-width="5" fill="#bf005f"/>
     <ellipse stroke="#000000" id="svg_61" ry="12.413269" rx="3.633154" cy="115.658052" cx="44.277991" stroke-linecap="square" stroke-linejoin="round" stroke-dasharray="null" stroke-width="5" fill="#ffff56"/>
     <ellipse stroke="#000000" id="svg_62" rx="1.00339" cy="131.400772" cx="55.452489" stroke-linecap="square" stroke-linejoin="round" stroke-dasharray="null" stroke-width="5" fill="none"/>
     <ellipse stroke="#000000" id="svg_63" ry="6.02035" rx="6.02035" cy="135.414342" cx="44.415189" stroke-linecap="square" stroke-linejoin="round" stroke-dasharray="null" stroke-width="5" fill="#ffffff"/>
    </g>
    <g transform="rotate(111.56446075439453 98.28125,106.125) " id="svg_81">
     <path id="svg_82" stroke="#000000" d="m96.099998,126.610255c0,0 -10.90626,-23.26669 -10.90626,-23.26669c0,0 13.08751,-31.9917 13.00676,-32.23406c-0.08076,-0.24237 13.16826,32.5976 13.08751,32.35523c-0.08076,-0.24237 -10.09842,22.78198 -10.17918,22.5396c-0.08075,-0.24237 -5.00883,0.60592 -5.00883,0.60592z" stroke-linecap="square" stroke-linejoin="round" stroke-dasharray="null" stroke-width="5" fill="#bf005f"/>
     <ellipse id="svg_83" stroke="#000000" ry="12.413269" rx="3.633154" cy="115.606237" cx="98.692069" stroke-linecap="square" stroke-linejoin="round" stroke-dasharray="null" stroke-width="5" fill="#ffff56"/>
     <ellipse id="svg_84" stroke="#000000" rx="1.00339" cy="131.348957" cx="109.866567" stroke-linecap="square" stroke-linejoin="round" stroke-dasharray="null" stroke-width="5" fill="none"/>
     <ellipse id="svg_85" stroke="#000000" ry="6.02035" rx="6.02035" cy="135.362527" cx="98.829267" stroke-linecap="square" stroke-linejoin="round" stroke-dasharray="null" stroke-width="5" fill="#ffffff"/>
    </g>
    <g id="svg_91" stroke="null" transform="rotate(-180 71.28125000000001,124.125) ">
     <path id="svg_92" stroke="#000000" d="m69.099983,144.610236c0,0 -10.90626,-23.26669 -10.90626,-23.26669c0,0 13.08751,-31.9917 13.00676,-32.23406c-0.08076,-0.24237 13.16826,32.5976 13.08751,32.35523c-0.08076,-0.24237 -10.09842,22.78198 -10.17918,22.5396c-0.08075,-0.24237 -5.00883,0.60592 -5.00883,0.60592z" stroke-linecap="square" stroke-linejoin="round" stroke-dasharray="null" stroke-width="5" fill="#bf005f"/>
     <ellipse id="svg_93" stroke="#000000" ry="12.413269" rx="3.633154" cy="133.606218" cx="71.692054" stroke-linecap="square" stroke-linejoin="round" stroke-dasharray="null" stroke-width="5" fill="#ffff56"/>
     <ellipse id="svg_94" stroke="#000000" rx="1.00339" cy="149.348938" cx="82.866551" stroke-linecap="square" stroke-linejoin="round" stroke-dasharray="null" stroke-width="5" fill="none"/>
     <ellipse id="svg_95" stroke="#000000" ry="6.02035" rx="6.02035" cy="153.362508" cx="71.829251" stroke-linecap="square" stroke-linejoin="round" stroke-dasharray="null" stroke-width="5" fill="#ffffff"/>
    </g>
   </g>
   <g transform="rotate(-180 70.71875,69.5625) " id="svg_149">
    <g id="svg_150" stroke="null" transform="rotate(-110.22142028808594 43.515777587890625,55.55059814453125) ">
     <path id="svg_151" stroke="#000000" d="m41.33451,76.035842c0,0 -10.90626,-23.26669 -10.90626,-23.26669c0,0 13.08751,-31.9917 13.00676,-32.23406c-0.08076,-0.24237 13.16826,32.5976 13.08751,32.35523c-0.08076,-0.24237 -10.09842,22.78198 -10.17918,22.5396c-0.08075,-0.24237 -5.00883,0.60592 -5.00883,0.60592z" stroke-linecap="square" stroke-linejoin="round" stroke-dasharray="null" stroke-width="5" fill="#bf005f"/>
     <ellipse id="svg_152" stroke="#000000" ry="12.413269" rx="3.633154" cy="65.031824" cx="43.926582" stroke-linecap="square" stroke-linejoin="round" stroke-dasharray="null" stroke-width="5" fill="#ffff56"/>
     <ellipse id="svg_153" stroke="#000000" rx="1.00339" cy="80.774544" cx="55.101079" stroke-linecap="square" stroke-linejoin="round" stroke-dasharray="null" stroke-width="5" fill="none"/>
     <ellipse id="svg_154" stroke="#000000" ry="6.02035" rx="6.02035" cy="84.788114" cx="44.063779" stroke-linecap="square" stroke-linejoin="round" stroke-dasharray="null" stroke-width="5" fill="#ffffff"/>
    </g>
    <g id="svg_155" transform="rotate(111.56446075439453 97.92984008789062,55.49877929687499) ">
     <path id="svg_156" stroke="#000000" d="m95.74859,75.984022c0,0 -10.90626,-23.26669 -10.90626,-23.26669c0,0 13.08751,-31.9917 13.00676,-32.23406c-0.08076,-0.24237 13.16826,32.5976 13.08751,32.35523c-0.08076,-0.24237 -10.09842,22.78198 -10.17918,22.5396c-0.08075,-0.24237 -5.00883,0.60592 -5.00883,0.60592z" stroke-linecap="square" stroke-linejoin="round" stroke-dasharray="null" stroke-width="5" fill="#bf005f"/>
     <ellipse id="svg_157" stroke="#000000" ry="12.413269" rx="3.633154" cy="64.980009" cx="98.340659" stroke-linecap="square" stroke-linejoin="round" stroke-dasharray="null" stroke-width="5" fill="#ffff56"/>
     <ellipse id="svg_158" stroke="#000000" rx="1.00339" cy="80.722729" cx="109.515157" stroke-linecap="square" stroke-linejoin="round" stroke-dasharray="null" stroke-width="5" fill="none"/>
     <ellipse id="svg_159" stroke="#000000" ry="6.02035" rx="6.02035" cy="84.736299" cx="98.477857" stroke-linecap="square" stroke-linejoin="round" stroke-dasharray="null" stroke-width="5" fill="#ffffff"/>
    </g>
    <g id="svg_160" stroke="null" transform="rotate(-180 70.92984008789062,73.49876403808594) ">
     <path id="svg_161" stroke="#000000" d="m68.74857,93.984012c0,0 -10.90626,-23.26669 -10.90626,-23.26669c0,0 13.08751,-31.9917 13.00676,-32.23406c-0.08076,-0.24237 13.16826,32.5976 13.08751,32.35523c-0.08076,-0.24237 -10.09842,22.78198 -10.17918,22.5396c-0.08075,-0.24237 -5.00883,0.60592 -5.00883,0.60592z" stroke-linecap="square" stroke-linejoin="round" stroke-dasharray="null" stroke-width="5" fill="#bf005f"/>
     <ellipse id="svg_162" stroke="#000000" ry="12.413269" rx="3.633154" cy="82.97999" cx="71.340644" stroke-linecap="square" stroke-linejoin="round" stroke-dasharray="null" stroke-width="5" fill="#ffff56"/>
     <ellipse id="svg_163" stroke="#000000" rx="1.00339" cy="98.72271" cx="82.515141" stroke-linecap="square" stroke-linejoin="round" stroke-dasharray="null" stroke-width="5" fill="none"/>
     <ellipse id="svg_164" stroke="#000000" ry="6.02035" rx="6.02035" cy="102.73628" cx="71.477841" stroke-linecap="square" stroke-linejoin="round" stroke-dasharray="null" stroke-width="5" fill="#ffffff"/>
    </g>
   </g>
  </g>
 </g>
 <g display="none">
  <title>5 sided wide bottom</title>
  <g transform="rotate(-180 71.63265991210938,236.0362548828125) " id="svg_209">
   <g id="svg_168" stroke="null" transform="rotate(-110.22142028808594 44.42968749999999,242.30181884765625) ">
    <path id="svg_169" stroke="#000000" d="m42.24842,262.78707c0,0 -10.90626,-23.26669 -10.90626,-23.26669c0,0 13.08751,-31.9917 13.00676,-32.23406c-0.08076,-0.24237 13.16826,32.5976 13.08751,32.35523c-0.08076,-0.24237 -10.09842,22.78198 -10.17918,22.5396c-0.08075,-0.24237 -5.00883,0.60592 -5.00883,0.60592z" stroke-linecap="square" stroke-linejoin="round" stroke-dasharray="null" stroke-width="5" fill="#bf005f"/>
    <ellipse id="svg_170" stroke="#000000" ry="12.413269" rx="3.633154" cy="251.783052" cx="44.840491" stroke-linecap="square" stroke-linejoin="round" stroke-dasharray="null" stroke-width="5" fill="#ffff56"/>
    <ellipse id="svg_171" stroke="#000000" rx="1.00339" cy="267.525772" cx="56.014989" stroke-linecap="square" stroke-linejoin="round" stroke-dasharray="null" stroke-width="5" fill="none"/>
    <ellipse id="svg_172" stroke="#000000" ry="6.02035" rx="6.02035" cy="271.539342" cx="44.977689" stroke-linecap="square" stroke-linejoin="round" stroke-dasharray="null" stroke-width="5" fill="#ffffff"/>
   </g>
   <g id="svg_178" stroke="null" transform="rotate(-180 71.84375,260.25) ">
    <path id="svg_179" stroke="#000000" d="m69.66248,280.73524c0,0 -10.90626,-23.26669 -10.90626,-23.26669c0,0 13.08751,-31.9917 13.00676,-32.23406c-0.08076,-0.24237 13.16826,32.5976 13.08751,32.35523c-0.08076,-0.24237 -10.09842,22.78198 -10.17918,22.5396c-0.08075,-0.24237 -5.00883,0.60592 -5.00883,0.60592z" stroke-linecap="square" stroke-linejoin="round" stroke-dasharray="null" stroke-width="5" fill="#bf005f"/>
    <ellipse id="svg_180" stroke="#000000" ry="12.413269" rx="3.633154" cy="269.731218" cx="72.254554" stroke-linecap="square" stroke-linejoin="round" stroke-dasharray="null" stroke-width="5" fill="#ffff56"/>
    <ellipse id="svg_181" stroke="#000000" rx="1.00339" cy="285.473938" cx="83.429051" stroke-linecap="square" stroke-linejoin="round" stroke-dasharray="null" stroke-width="5" fill="none"/>
    <ellipse id="svg_182" stroke="#000000" ry="6.02035" rx="6.02035" cy="289.487508" cx="72.391751" stroke-linecap="square" stroke-linejoin="round" stroke-dasharray="null" stroke-width="5" fill="#ffffff"/>
   </g>
   <g id="svg_173" transform="rotate(111.56446075439453 98.84374999999999,242.25000000000003) ">
    <path id="svg_174" stroke="#000000" d="m96.6625,262.73525c0,0 -10.90626,-23.26669 -10.90626,-23.26669c0,0 13.08751,-31.9917 13.00676,-32.23406c-0.08076,-0.24237 13.16826,32.5976 13.08751,32.35523c-0.08076,-0.24237 -10.09842,22.78198 -10.17918,22.5396c-0.08075,-0.24237 -5.00883,0.60592 -5.00883,0.60592z" stroke-linecap="square" stroke-linejoin="round" stroke-dasharray="null" stroke-width="5" fill="#bf005f"/>
    <ellipse id="svg_175" stroke="#000000" ry="12.413269" rx="3.633154" cy="251.731237" cx="99.254569" stroke-linecap="square" stroke-linejoin="round" stroke-dasharray="null" stroke-width="5" fill="#ffff56"/>
    <ellipse id="svg_176" stroke="#000000" rx="1.00339" cy="267.473957" cx="110.429067" stroke-linecap="square" stroke-linejoin="round" stroke-dasharray="null" stroke-width="5" fill="none"/>
    <ellipse id="svg_177" stroke="#000000" ry="6.02035" rx="6.02035" cy="271.487527" cx="99.391767" stroke-linecap="square" stroke-linejoin="round" stroke-dasharray="null" stroke-width="5" fill="#ffffff"/>
   </g>
   <g id="svg_199" stroke="null" transform="rotate(-45 50.46875000000001,210.75) ">
    <path id="svg_200" stroke="#000000" d="m48.287495,231.235255c0,0 -10.90626,-23.26669 -10.90626,-23.26669c0,0 13.08751,-31.9917 13.00676,-32.23406c-0.08076,-0.24237 13.16826,32.5976 13.08751,32.35523c-0.08076,-0.24237 -10.09842,22.78198 -10.17918,22.5396c-0.08075,-0.24237 -5.00883,0.60592 -5.00883,0.60592z" stroke-linecap="square" stroke-linejoin="round" stroke-dasharray="null" stroke-width="5" fill="#bf005f"/>
    <ellipse id="svg_201" stroke="#000000" ry="12.413269" rx="3.633154" cy="220.231233" cx="50.879569" stroke-linecap="square" stroke-linejoin="round" stroke-dasharray="null" stroke-width="5" fill="#ffff56"/>
    <ellipse id="svg_202" stroke="#000000" rx="1.00339" cy="235.973953" cx="62.054067" stroke-linecap="square" stroke-linejoin="round" stroke-dasharray="null" stroke-width="5" fill="none"/>
    <ellipse id="svg_203" stroke="#000000" ry="6.02035" rx="6.02035" cy="239.987523" cx="51.016767" stroke-linecap="square" stroke-linejoin="round" stroke-dasharray="null" stroke-width="5" fill="#ffffff"/>
   </g>
   <g id="svg_204" stroke="null" transform="rotate(45 91.53124999999997,210.75) ">
    <path id="svg_205" stroke="#000000" d="m89.349995,231.235255c0,0 -10.90626,-23.26669 -10.90626,-23.26669c0,0 13.08751,-31.9917 13.00676,-32.23406c-0.08076,-0.24237 13.16826,32.5976 13.08751,32.35523c-0.08076,-0.24237 -10.09842,22.78198 -10.17918,22.5396c-0.08075,-0.24237 -5.00883,0.60592 -5.00883,0.60592z" stroke-linecap="square" stroke-linejoin="round" stroke-dasharray="null" stroke-width="5" fill="#bf005f"/>
    <ellipse id="svg_206" stroke="#000000" ry="12.413269" rx="3.633154" cy="220.231233" cx="91.942069" stroke-linecap="square" stroke-linejoin="round" stroke-dasharray="null" stroke-width="5" fill="#ffff56"/>
    <ellipse id="svg_207" stroke="#000000" rx="1.00339" cy="235.973953" cx="103.116567" stroke-linecap="square" stroke-linejoin="round" stroke-dasharray="null" stroke-width="5" fill="none"/>
    <ellipse id="svg_208" stroke="#000000" ry="6.02035" rx="6.02035" cy="239.987523" cx="92.079267" stroke-linecap="square" stroke-linejoin="round" stroke-dasharray="null" stroke-width="5" fill="#ffffff"/>
   </g>
  </g>
 </g>
 <g display="none">
  <title>5 sided even</title>
  <polygon strokeWidth="5" strokecolor="#000000" fill="#bf005f" edge="0" orient="x" sides="5" shape="regularPoly" id="svg_282" cy="177.000016" cx="371.374955"/>
  <polygon strokeWidth="5" strokecolor="#000000" fill="#bf005f" edge="0" orient="x" sides="5" shape="regularPoly" id="svg_284" cy="137.625015" cx="387.124956"/>
  <g id="svg_306">
   <g id="svg_226" stroke="null">
    <path id="svg_227" stroke="#000000" d="m201.42782,81.55777c0,0 -10.90626,-23.26669 -10.90626,-23.26669c0,0 13.08751,-31.9917 13.00676,-32.23406c-0.08076,-0.24237 13.16826,32.5976 13.08751,32.35523c-0.08076,-0.24237 -10.09842,22.78198 -10.17918,22.5396c-0.08075,-0.24237 -5.00883,0.60592 -5.00883,0.60592z" stroke-linecap="square" stroke-linejoin="round" stroke-dasharray="null" stroke-width="5" fill="#bf005f"/>
    <ellipse id="svg_228" stroke="#000000" ry="12.413269" rx="3.633154" cy="70.553743" cx="204.019889" stroke-linecap="square" stroke-linejoin="round" stroke-dasharray="null" stroke-width="5" fill="#ffff56"/>
    <ellipse id="svg_229" stroke="#000000" rx="1.00339" cy="86.296463" cx="215.194386" stroke-linecap="square" stroke-linejoin="round" stroke-dasharray="null" stroke-width="5" fill="none"/>
    <ellipse id="svg_230" stroke="#000000" ry="6.02035" rx="6.02035" cy="90.310033" cx="204.157086" stroke-linecap="square" stroke-linejoin="round" stroke-dasharray="null" stroke-width="5" fill="#ffffff"/>
   </g>
   <g transform="rotate(74.96218872070312 232.15625,81.93750000000001) " id="svg_286" stroke="null">
    <path id="svg_287" stroke="#000000" d="m229.975,102.42276c0,0 -10.90626,-23.26669 -10.90626,-23.26669c0,0 13.08751,-31.9917 13.00676,-32.23406c-0.08076,-0.24237 13.16826,32.5976 13.08751,32.35523c-0.08076,-0.24237 -10.09842,22.78198 -10.17918,22.5396c-0.08075,-0.24237 -5.00883,0.60592 -5.00883,0.60592z" stroke-linecap="square" stroke-linejoin="round" stroke-dasharray="null" stroke-width="5" fill="#bf005f"/>
    <ellipse id="svg_288" stroke="#000000" ry="12.413269" rx="3.633154" cy="91.418733" cx="232.567069" stroke-linecap="square" stroke-linejoin="round" stroke-dasharray="null" stroke-width="5" fill="#ffff56"/>
    <ellipse id="svg_289" stroke="#000000" rx="1.00339" cy="107.161453" cx="243.741567" stroke-linecap="square" stroke-linejoin="round" stroke-dasharray="null" stroke-width="5" fill="none"/>
    <ellipse id="svg_290" stroke="#000000" ry="6.02035" rx="6.02035" cy="111.175023" cx="232.704267" stroke-linecap="square" stroke-linejoin="round" stroke-dasharray="null" stroke-width="5" fill="#ffffff"/>
   </g>
   <g transform="rotate(144.73428344726562 221.46875,113.4375) " id="svg_291" stroke="null">
    <path id="svg_292" stroke="#000000" d="m219.2875,133.92276c0,0 -10.90626,-23.26669 -10.90626,-23.26669c0,0 13.08751,-31.9917 13.00676,-32.23406c-0.08076,-0.24237 13.16826,32.5976 13.08751,32.35523c-0.08076,-0.24237 -10.09842,22.78198 -10.17918,22.5396c-0.08075,-0.24237 -5.00883,0.60592 -5.00883,0.60592z" stroke-linecap="square" stroke-linejoin="round" stroke-dasharray="null" stroke-width="5" fill="#bf005f"/>
    <ellipse id="svg_293" stroke="#000000" ry="12.413269" rx="3.633154" cy="122.918733" cx="221.879569" stroke-linecap="square" stroke-linejoin="round" stroke-dasharray="null" stroke-width="5" fill="#ffff56"/>
    <ellipse id="svg_294" stroke="#000000" rx="1.00339" cy="138.661453" cx="233.054067" stroke-linecap="square" stroke-linejoin="round" stroke-dasharray="null" stroke-width="5" fill="none"/>
    <ellipse id="svg_295" stroke="#000000" ry="6.02035" rx="6.02035" cy="142.675023" cx="222.016767" stroke-linecap="square" stroke-linejoin="round" stroke-dasharray="null" stroke-width="5" fill="#ffffff"/>
   </g>
   <g transform="rotate(-145.49143981933594 187.71875,114.56249999999997) " id="svg_296" stroke="null">
    <path id="svg_297" stroke="#000000" d="m185.5375,135.04776c0,0 -10.90626,-23.26669 -10.90626,-23.26669c0,0 13.08751,-31.9917 13.00676,-32.23406c-0.08076,-0.24237 13.16826,32.5976 13.08751,32.35523c-0.08076,-0.24237 -10.09842,22.78198 -10.17918,22.5396c-0.08075,-0.24237 -5.00883,0.60592 -5.00883,0.60592z" stroke-linecap="square" stroke-linejoin="round" stroke-dasharray="null" stroke-width="5" fill="#bf005f"/>
    <ellipse id="svg_298" stroke="#000000" ry="12.413269" rx="3.633154" cy="124.043733" cx="188.129569" stroke-linecap="square" stroke-linejoin="round" stroke-dasharray="null" stroke-width="5" fill="#ffff56"/>
    <ellipse id="svg_299" stroke="#000000" rx="1.00339" cy="139.786453" cx="199.304067" stroke-linecap="square" stroke-linejoin="round" stroke-dasharray="null" stroke-width="5" fill="none"/>
    <ellipse id="svg_300" stroke="#000000" ry="6.02035" rx="6.02035" cy="143.800023" cx="188.266767" stroke-linecap="square" stroke-linejoin="round" stroke-dasharray="null" stroke-width="5" fill="#ffffff"/>
   </g>
   <g transform="rotate(-74.14422607421875 175.90625,82.5) " id="svg_301" stroke="null">
    <path id="svg_302" stroke="#000000" d="m173.725,102.98526c0,0 -10.90626,-23.26669 -10.90626,-23.26669c0,0 13.08751,-31.9917 13.00676,-32.23406c-0.08076,-0.24237 13.16826,32.5976 13.08751,32.35523c-0.08076,-0.24237 -10.09842,22.78198 -10.17918,22.5396c-0.08075,-0.24237 -5.00883,0.60592 -5.00883,0.60592z" stroke-linecap="square" stroke-linejoin="round" stroke-dasharray="null" stroke-width="5" fill="#bf005f"/>
    <ellipse id="svg_303" stroke="#000000" ry="12.413269" rx="3.633154" cy="91.981233" cx="176.317069" stroke-linecap="square" stroke-linejoin="round" stroke-dasharray="null" stroke-width="5" fill="#ffff56"/>
    <ellipse id="svg_304" stroke="#000000" rx="1.00339" cy="107.723953" cx="187.491567" stroke-linecap="square" stroke-linejoin="round" stroke-dasharray="null" stroke-width="5" fill="none"/>
    <ellipse id="svg_305" stroke="#000000" ry="6.02035" rx="6.02035" cy="111.737523" cx="176.454267" stroke-linecap="square" stroke-linejoin="round" stroke-dasharray="null" stroke-width="5" fill="#ffffff"/>
   </g>
  </g>
 </g>
 <g display="inline">
  <title>5 sided fatter even</title>
  <g id="svg_442">
   <g stroke="null" id="svg_359">
    <g stroke="null" id="svg_360">
     <path stroke="#000000" id="svg_361" d="m162.838757,218.053841c0,0 -15.473351,-24.157286 -15.473351,-24.157286c0,0 18.568019,-33.216269 18.453454,-33.467906c-0.114579,-0.251647 18.682582,33.845362 18.568018,33.593714c-0.114579,-0.251647 -14.327221,23.654022 -14.441799,23.402364c-0.114566,-0.251647 -7.106322,0.629113 -7.106322,0.629113z" stroke-linecap="square" stroke-linejoin="round" stroke-dasharray="null" stroke-width="5" fill="#bf005f"/>
     <ellipse stroke="#000000" id="svg_362" ry="12.888421" rx="3.772222" cy="206.044574" cx="166.05266" stroke-linecap="square" stroke-linejoin="round" stroke-dasharray="null" stroke-width="5" fill="#ffff56"/>
     <ellipse stroke="#000000" id="svg_363" rx="1.041797" cy="222.389889" cx="177.654892" stroke-linecap="square" stroke-linejoin="round" stroke-dasharray="null" stroke-width="5" fill="none"/>
     <ellipse stroke="#000000" id="svg_364" ry="6.250795" rx="6.250795" cy="226.55709" cx="166.195109" stroke-linecap="square" stroke-linejoin="round" stroke-dasharray="null" stroke-width="5" fill="#ffffff"/>
    </g>
    <g stroke="null" id="svg_365" transform="matrix(0.3264482320517061,0.9856227265935357,-0.9856227265935357,0.3264482320517061,262.938480595643,12.946864123053786) ">
     <path stroke="#000000" id="svg_366" d="m162.812373,144.338415c0,0 -14.9029,-23.26669 -14.9029,-23.26669c0,0 17.88348,-31.9917 17.77314,-32.23406c-0.11036,-0.24237 17.99382,32.5976 17.88348,32.35523c-0.11036,-0.24237 -13.79903,22.78198 -13.90938,22.5396c-0.11034,-0.24237 -6.84434,0.60592 -6.84434,0.60592z" stroke-linecap="square" stroke-linejoin="round" stroke-dasharray="null" stroke-width="5" fill="#bf005f"/>
     <ellipse stroke="#000000" id="svg_367" ry="12.413269" rx="3.633154" cy="132.771889" cx="165.907792" stroke-linecap="square" stroke-linejoin="round" stroke-dasharray="null" stroke-width="5" fill="#ffff56"/>
     <ellipse stroke="#000000" id="svg_368" rx="1.00339" cy="148.514609" cx="177.08229" stroke-linecap="square" stroke-linejoin="round" stroke-dasharray="null" stroke-width="5" fill="none"/>
     <ellipse stroke="#000000" id="svg_369" ry="6.02035" rx="6.02035" cy="152.528179" cx="166.04499" stroke-linecap="square" stroke-linejoin="round" stroke-dasharray="null" stroke-width="5" fill="#ffffff"/>
    </g>
    <g stroke="null" id="svg_370" transform="matrix(-0.8164174894070302,0.6414694773546764,-0.6414694773546764,-0.8164174894070302,324.5946448618008,335.34356676186826) ">
     <path stroke="#000000" id="svg_371" d="m53.176302,167.295245c0,0 -14.9029,-23.26669 -14.9029,-23.26669c0,0 17.88348,-31.9917 17.77314,-32.23406c-0.11036,-0.24237 17.99382,32.5976 17.88348,32.35523c-0.11036,-0.24237 -13.79903,22.78198 -13.90938,22.5396c-0.11034,-0.24237 -6.84434,0.60592 -6.84434,0.60592z" stroke-linecap="square" stroke-linejoin="round" stroke-dasharray="null" stroke-width="5" fill="#bf005f"/>
     <ellipse stroke="#000000" id="svg_372" ry="12.413269" rx="3.633154" cy="155.728718" cx="56.271721" stroke-linecap="square" stroke-linejoin="round" stroke-dasharray="null" stroke-width="5" fill="#ffff56"/>
     <ellipse stroke="#000000" id="svg_373" rx="1.00339" cy="171.471438" cx="67.446219" stroke-linecap="square" stroke-linejoin="round" stroke-dasharray="null" stroke-width="5" fill="none"/>
     <ellipse stroke="#000000" id="svg_374" ry="6.02035" rx="6.02035" cy="175.485008" cx="56.408919" stroke-linecap="square" stroke-linejoin="round" stroke-dasharray="null" stroke-width="5" fill="#ffffff"/>
    </g>
    <g stroke="null" id="svg_375" transform="matrix(0.33023612414914305,-0.9843600508423286,0.9843600508423286,0.33023612414914305,-150.0479985270531,169.76313445449233) ">
     <path stroke="#000000" id="svg_376" d="m41.876273,296.593935c0,0 -14.9029,-23.26669 -14.9029,-23.26669c0,0 17.88348,-31.9917 17.77314,-32.23406c-0.11036,-0.24237 17.99382,32.5976 17.88348,32.35523c-0.11036,-0.24237 -13.79903,22.78198 -13.90938,22.5396c-0.11034,-0.24237 -6.84434,0.60592 -6.84434,0.60592z" stroke-linecap="square" stroke-linejoin="round" stroke-dasharray="null" stroke-width="5" fill="#bf005f"/>
     <ellipse stroke="#000000" id="svg_377" ry="12.413269" rx="3.633154" cy="285.027408" cx="44.971692" stroke-linecap="square" stroke-linejoin="round" stroke-dasharray="null" stroke-width="5" fill="#ffff56"/>
     <ellipse stroke="#000000" id="svg_378" rx="1.00339" cy="300.770128" cx="56.14619" stroke-linecap="square" stroke-linejoin="round" stroke-dasharray="null" stroke-width="5" fill="none"/>
     <ellipse stroke="#000000" id="svg_379" ry="6.02035" rx="6.02035" cy="304.783698" cx="45.10889" stroke-linecap="square" stroke-linejoin="round" stroke-dasharray="null" stroke-width="5" fill="#ffffff"/>
    </g>
    <g stroke="null" id="svg_380" transform="matrix(-0.8260245540723474,-0.6290501120395253,0.6290501120395253,-0.8260245540723474,-23.551386247961922,439.9939927998588) ">
     <path stroke="#000000" id="svg_381" d="m-24.547593,265.096821c0,0 -14.9029,-23.26669 -14.9029,-23.26669c0,0 17.88348,-31.9917 17.77314,-32.23406c-0.11036,-0.24237 17.99382,32.5976 17.88348,32.35523c-0.11036,-0.24237 -13.79903,22.78198 -13.90938,22.5396c-0.11034,-0.24237 -6.84434,0.60592 -6.84434,0.60592z" stroke-linecap="square" stroke-linejoin="round" stroke-dasharray="null" stroke-width="5" fill="#bf005f"/>
     <ellipse stroke="#000000" id="svg_382" ry="12.413269" rx="3.633154" cy="253.530294" cx="-21.452173" stroke-linecap="square" stroke-linejoin="round" stroke-dasharray="null" stroke-width="5" fill="#ffff56"/>
     <ellipse stroke="#000000" id="svg_383" rx="1.00339" cy="269.273014" cx="-10.277676" stroke-linecap="square" stroke-linejoin="round" stroke-dasharray="null" stroke-width="5" fill="none"/>
     <ellipse stroke="#000000" id="svg_384" ry="6.02035" rx="6.02035" cy="273.286584" cx="-21.314976" stroke-linecap="square" stroke-linejoin="round" stroke-dasharray="null" stroke-width="5" fill="#ffffff"/>
    </g>
   </g>
   <text id="svg_441" stroke="#000000" font-weight="normal" transform="matrix(2.182517007045644,0,0,2.182517007045644,-190.29046623383866,-224.97952643918222) " xml:space="preserve" text-anchor="middle" font-family="Monospace" font-size="24" y="223.698943" x="258.737579" stroke-linecap="null" stroke-linejoin="null" stroke-dasharray="null" stroke-width="0" fill="#000000">Nightshade</text>
  </g>
  <polygon id="svg_307" strokeWidth="5" strokecolor="#000000" fill="#bf005f" edge="0" orient="x" sides="5" shape="regularPoly" cy="177.000016" cx="371.374955"/>
  <polygon id="svg_308" strokeWidth="5" strokecolor="#000000" fill="#bf005f" edge="0" orient="x" sides="5" shape="regularPoly" cy="137.625015" cx="387.124956"/>
 </g>
 <g display="none">
  <title>5 sided fatter even copy</title>
  <g id="svg_808">
   <g id="svg_809" stroke="null">
    <g id="svg_810" stroke="null">
     <path id="svg_811" stroke="#000000" d="m64.838757,61.053841c0,0 -15.473351,-24.157285 -15.473351,-24.157285c0,0 18.568018,-33.21627 18.453454,-33.467907c-0.114579,-0.251647 18.682582,33.845362 18.568018,33.593715c-0.11458,-0.251648 -14.327222,23.654022 -14.4418,23.402364c-0.114565,-0.251647 -7.106321,0.629113 -7.106321,0.629113z" stroke-linecap="square" stroke-linejoin="round" stroke-dasharray="null" stroke-width="5" fill="#bf005f"/>
     <ellipse id="svg_812" stroke="#000000" ry="12.888421" rx="3.772222" cy="49.044574" cx="68.05266" stroke-linecap="square" stroke-linejoin="round" stroke-dasharray="null" stroke-width="5" fill="#ffff56"/>
     <ellipse id="svg_813" stroke="#000000" rx="1.041797" cy="65.389889" cx="79.654892" stroke-linecap="square" stroke-linejoin="round" stroke-dasharray="null" stroke-width="5" fill="none"/>
     <ellipse id="svg_814" stroke="#000000" ry="6.250795" rx="6.250795" cy="69.55709" cx="68.195109" stroke-linecap="square" stroke-linejoin="round" stroke-dasharray="null" stroke-width="5" fill="#ffffff"/>
    </g>
    <g id="svg_815" stroke="null" transform="matrix(0.3264482320517061,0.9856227265935357,-0.9856227265935357,0.3264482320517061,262.938480595643,12.946864123053786) ">
     <path id="svg_816" stroke="#000000" d="m-10.407597,186.395731c0,0 -14.9029,-23.26669 -14.9029,-23.26669c0,0 17.88348,-31.9917 17.77314,-32.23406c-0.11036,-0.24237 17.99382,32.5976 17.88348,32.35523c-0.11036,-0.24237 -13.79903,22.78198 -13.90938,22.5396c-0.11034,-0.24237 -6.84434,0.60592 -6.84434,0.60592z" stroke-linecap="square" stroke-linejoin="round" stroke-dasharray="null" stroke-width="5" fill="#bf005f"/>
     <ellipse id="svg_817" stroke="#000000" ry="12.413269" rx="3.633154" cy="174.829205" cx="-7.312178" stroke-linecap="square" stroke-linejoin="round" stroke-dasharray="null" stroke-width="5" fill="#ffff56"/>
     <ellipse id="svg_818" stroke="#000000" rx="1.00339" cy="190.571925" cx="3.862319" stroke-linecap="square" stroke-linejoin="round" stroke-dasharray="null" stroke-width="5" fill="none"/>
     <ellipse id="svg_819" stroke="#000000" ry="6.02035" rx="6.02035" cy="194.585495" cx="-7.174981" stroke-linecap="square" stroke-linejoin="round" stroke-dasharray="null" stroke-width="5" fill="#ffffff"/>
    </g>
    <g id="svg_820" stroke="null" transform="matrix(-0.8164174894070302,0.6414694773546764,-0.6414694773546764,-0.8164174894070302,324.5946448618008,335.34356676186826) ">
     <path id="svg_821" stroke="#000000" d="m33.972779,344.510363c0,0 -14.9029,-23.26669 -14.9029,-23.26669c0,0 17.88348,-31.9917 17.77314,-32.23406c-0.11036,-0.24237 17.99382,32.5976 17.88348,32.35523c-0.11036,-0.24237 -13.79903,22.78198 -13.90938,22.5396c-0.11034,-0.24237 -6.84434,0.60592 -6.84434,0.60592z" stroke-linecap="square" stroke-linejoin="round" stroke-dasharray="null" stroke-width="5" fill="#bf005f"/>
     <ellipse id="svg_822" stroke="#000000" ry="12.413269" rx="3.633154" cy="332.943836" cx="37.068198" stroke-linecap="square" stroke-linejoin="round" stroke-dasharray="null" stroke-width="5" fill="#ffff56"/>
     <ellipse id="svg_823" stroke="#000000" rx="1.00339" cy="348.686556" cx="48.242695" stroke-linecap="square" stroke-linejoin="round" stroke-dasharray="null" stroke-width="5" fill="none"/>
     <ellipse id="svg_824" stroke="#000000" ry="6.02035" rx="6.02035" cy="352.700126" cx="37.205395" stroke-linecap="square" stroke-linejoin="round" stroke-dasharray="null" stroke-width="5" fill="#ffffff"/>
    </g>
    <g id="svg_825" stroke="null" transform="matrix(0.33023612414914305,-0.9843600508423286,0.9843600508423286,0.33023612414914305,-150.0479985270531,169.76313445449233) ">
     <path id="svg_826" stroke="#000000" d="m155.214912,159.013673c0,0 -14.9029,-23.26669 -14.9029,-23.26669c0,0 17.88348,-31.9917 17.77314,-32.23406c-0.11036,-0.24237 17.99382,32.5976 17.88348,32.35523c-0.11036,-0.24237 -13.79903,22.78198 -13.90938,22.5396c-0.11034,-0.24237 -6.84434,0.60592 -6.84434,0.60592z" stroke-linecap="square" stroke-linejoin="round" stroke-dasharray="null" stroke-width="5" fill="#bf005f"/>
     <ellipse id="svg_827" stroke="#000000" ry="12.413269" rx="3.633154" cy="147.447147" cx="158.310331" stroke-linecap="square" stroke-linejoin="round" stroke-dasharray="null" stroke-width="5" fill="#ffff56"/>
     <ellipse id="svg_828" stroke="#000000" rx="1.00339" cy="163.189867" cx="169.484828" stroke-linecap="square" stroke-linejoin="round" stroke-dasharray="null" stroke-width="5" fill="none"/>
     <ellipse id="svg_829" stroke="#000000" ry="6.02035" rx="6.02035" cy="167.203437" cx="158.447528" stroke-linecap="square" stroke-linejoin="round" stroke-dasharray="null" stroke-width="5" fill="#ffffff"/>
    </g>
    <g id="svg_830" stroke="null" transform="matrix(-0.8260245540723474,-0.6290501120395253,0.6290501120395253,-0.8260245540723474,-23.551386247961922,439.9939927998588) ">
     <path id="svg_831" stroke="#000000" d="m142.157272,328.211517c0,0 -14.9029,-23.26669 -14.9029,-23.26669c0,0 17.88348,-31.9917 17.77314,-32.23406c-0.11036,-0.24237 17.99382,32.5976 17.88348,32.35523c-0.11036,-0.24237 -13.79903,22.78198 -13.90938,22.5396c-0.11034,-0.24237 -6.84434,0.60592 -6.84434,0.60592z" stroke-linecap="square" stroke-linejoin="round" stroke-dasharray="null" stroke-width="5" fill="#bf005f"/>
     <ellipse id="svg_832" stroke="#000000" ry="12.413269" rx="3.633154" cy="316.64499" cx="145.252691" stroke-linecap="square" stroke-linejoin="round" stroke-dasharray="null" stroke-width="5" fill="#ffff56"/>
     <ellipse id="svg_833" stroke="#000000" rx="1.00339" cy="332.387711" cx="156.427188" stroke-linecap="square" stroke-linejoin="round" stroke-dasharray="null" stroke-width="5" fill="none"/>
     <ellipse id="svg_834" stroke="#000000" ry="6.02035" rx="6.02035" cy="336.401281" cx="145.389888" stroke-linecap="square" stroke-linejoin="round" stroke-dasharray="null" stroke-width="5" fill="#ffffff"/>
    </g>
   </g>
   <text id="svg_835" stroke="#000000" font-weight="normal" transform="matrix(2.182517007045644,0,0,2.182517007045644,-190.29046623383866,-224.97952643918222) " xml:space="preserve" text-anchor="middle" font-family="Monospace" font-size="24" y="151.763651" x="213.835294" stroke-linecap="null" stroke-linejoin="null" stroke-dasharray="null" stroke-width="0" fill="#000000">Nightshade</text>
  </g>
  <polygon id="svg_836" strokeWidth="5" strokecolor="#000000" fill="#bf005f" edge="0" orient="x" sides="5" shape="regularPoly" cy="177.000016" cx="371.374955"/>
  <polygon id="svg_837" strokeWidth="5" strokecolor="#000000" fill="#bf005f" edge="0" orient="x" sides="5" shape="regularPoly" cy="137.625015" cx="387.124956"/>
  <g id="svg_838">
   <path id="svg_839" stroke="#000000" d="m64.967396,288.025826c0,0 -15.473351,-24.157285 -15.473351,-24.157285c0,0 18.568018,-33.21627 18.453454,-33.467907c-0.114579,-0.251647 18.682582,33.845362 18.568018,33.593715c-0.11458,-0.251648 -14.327222,23.654022 -14.4418,23.402364c-0.114565,-0.251647 -7.106321,0.629113 -7.106321,0.629113z" stroke-linecap="square" stroke-linejoin="round" stroke-dasharray="null" stroke-width="5" fill="#9b225a"/>
   <ellipse id="svg_840" stroke="#000000" ry="12.888421" rx="3.772222" cy="276.016559" cx="68.1813" stroke-linecap="square" stroke-linejoin="round" stroke-dasharray="null" stroke-width="5" fill="#ffff56"/>
   <ellipse id="svg_841" stroke="#000000" rx="1.041797" cy="292.361874" cx="79.783531" stroke-linecap="square" stroke-linejoin="round" stroke-dasharray="null" stroke-width="5" fill="none"/>
   <ellipse id="svg_842" stroke="#000000" ry="6.250795" rx="6.250795" cy="296.529074" cx="68.323749" stroke-linecap="square" stroke-linejoin="round" stroke-dasharray="null" stroke-width="5" fill="#ffffff"/>
   <path id="svg_843" stroke="#000000" d="m75.953693,290.509446c0,0 18.067153,-22.284006 18.067153,-22.284006c0,0 37.369777,7.18273 37.572632,6.994858c0.202859,-0.187894 -26.254884,28.376547 -26.052019,28.188672c0.202858,-0.187894 -26.959106,-6.1635 -26.756235,-6.351388c0.202865,-0.187875 -2.831531,-6.548136 -2.831531,-6.548136z" stroke-linecap="square" stroke-linejoin="round" stroke-dasharray="null" stroke-width="5" fill="#9b225a"/>
   <ellipse id="svg_844" transform="matrix(0.3264482320517061,0.9856227265935357,-0.9856227265935357,0.3264482320517061,262.938480595643,12.946864123053786) " stroke="#000000" ry="12.413269" rx="3.633154" cy="243.443692" cx="200.244838" stroke-linecap="square" stroke-linejoin="round" stroke-dasharray="null" stroke-width="5" fill="#ffff56"/>
   <ellipse id="svg_845" transform="matrix(0.3264482320517061,0.9856227265935357,-0.9856227265935357,0.3264482320517061,262.938480595643,12.946864123053786) " stroke="#000000" rx="1.00339" cy="259.186412" cx="211.419336" stroke-linecap="square" stroke-linejoin="round" stroke-dasharray="null" stroke-width="5" fill="none"/>
   <ellipse id="svg_846" transform="matrix(0.3264482320517061,0.9856227265935357,-0.9856227265935357,0.3264482320517061,262.938480595643,12.946864123053786) " stroke="#000000" ry="6.02035" rx="6.02035" cy="263.199982" cx="200.382036" stroke-linecap="square" stroke-linejoin="round" stroke-dasharray="null" stroke-width="5" fill="#ffffff"/>
   <path id="svg_847" stroke="#000000" d="m75.994418,302.843752c0,0 27.09186,9.435577 27.09186,9.435577c0,0 5.921313,37.59029 6.166863,37.717377c0.245573,0.127083 -35.600835,-15.070764 -35.355278,-14.943669c0.245572,0.127083 -3.348176,-27.451263 -3.102605,-27.324166c0.245557,0.127095 5.19916,-4.885119 5.19916,-4.885119z" stroke-linecap="square" stroke-linejoin="round" stroke-dasharray="null" stroke-width="5" fill="#9b225a"/>
   <ellipse id="svg_848" transform="matrix(-0.8164174894070302,0.6414694773546764,-0.6414694773546764,-0.8164174894070302,324.5946448618008,335.34356676186826) " stroke="#000000" ry="12.413269" rx="3.633154" cy="160.974586" cx="172.029049" stroke-linecap="square" stroke-linejoin="round" stroke-dasharray="null" stroke-width="5" fill="#ffff56"/>
   <ellipse id="svg_849" transform="matrix(-0.8164174894070302,0.6414694773546764,-0.6414694773546764,-0.8164174894070302,324.5946448618008,335.34356676186826) " stroke="#000000" rx="1.00339" cy="176.717306" cx="183.203547" stroke-linecap="square" stroke-linejoin="round" stroke-dasharray="null" stroke-width="5" fill="none"/>
   <ellipse id="svg_850" transform="matrix(-0.8164174894070302,0.6414694773546764,-0.6414694773546764,-0.8164174894070302,324.5946448618008,335.34356676186826) " stroke="#000000" ry="6.02035" rx="6.02035" cy="180.730876" cx="172.166247" stroke-linecap="square" stroke-linejoin="round" stroke-dasharray="null" stroke-width="5" fill="#ffffff"/>
   <path id="svg_851" stroke="#000000" d="m57.864931,296.459825c0,0 -27.824276,6.986317 -27.824276,6.986317c0,0 -25.585581,-28.168598 -25.860588,-28.14002c-0.275025,0.028595 38.029984,-6.947492 37.754966,-6.918917c-0.275024,0.028594 17.868733,21.106646 17.593703,21.135228c-0.275018,0.028575 -1.663805,6.937392 -1.663805,6.937392z" stroke-linecap="square" stroke-linejoin="round" stroke-dasharray="null" stroke-width="5" fill="#9b225a"/>
   <ellipse id="svg_852" transform="matrix(0.33023612414914305,-0.9843600508423286,0.9843600508423286,0.33023612414914305,-150.0479985270531,169.76313445449233) " stroke="#000000" ry="12.413269" rx="3.633154" cy="217.094228" cx="-48.902474" stroke-linecap="square" stroke-linejoin="round" stroke-dasharray="null" stroke-width="5" fill="#ffff56"/>
   <ellipse id="svg_853" transform="matrix(0.33023612414914305,-0.9843600508423286,0.9843600508423286,0.33023612414914305,-150.0479985270531,169.76313445449233) " stroke="#000000" rx="1.00339" cy="232.836948" cx="-37.727977" stroke-linecap="square" stroke-linejoin="round" stroke-dasharray="null" stroke-width="5" fill="none"/>
   <ellipse id="svg_854" transform="matrix(0.33023612414914305,-0.9843600508423286,0.9843600508423286,0.33023612414914305,-150.0479985270531,169.76313445449233) " stroke="#000000" ry="6.02035" rx="6.02035" cy="236.850518" cx="-48.765277" stroke-linecap="square" stroke-linejoin="round" stroke-dasharray="null" stroke-width="5" fill="#ffffff"/>
   <path id="svg_855" stroke="#000000" d="m65.613346,306.431152c0,0 -2.325753,28.593528 -2.325753,28.593528c0,0 -34.896576,15.176325 -34.957889,15.44593c-0.061302,0.269625 5.642187,-38.245433 5.580868,-37.97582c-0.061303,0.269626 25.729344,-10.138193 25.668027,-9.868566c-0.061319,0.269613 6.034747,3.804928 6.034747,3.804928z" stroke-linecap="square" stroke-linejoin="round" stroke-dasharray="null" stroke-width="5" fill="#9b225a"/>
   <ellipse id="svg_856" transform="matrix(-0.8260245540723474,-0.6290501120395253,0.6290501120395253,-0.8260245540723474,-23.551386247961922,439.9939927998588) " stroke="#000000" ry="12.413269" rx="3.633154" cy="142.804614" cx="12.710691" stroke-linecap="square" stroke-linejoin="round" stroke-dasharray="null" stroke-width="5" fill="#ffff56"/>
   <ellipse id="svg_857" transform="matrix(-0.8260245540723474,-0.6290501120395253,0.6290501120395253,-0.8260245540723474,-23.551386247961922,439.9939927998588) " stroke="#000000" rx="1.00339" cy="158.547334" cx="23.885189" stroke-linecap="square" stroke-linejoin="round" stroke-dasharray="null" stroke-width="5" fill="none"/>
   <ellipse id="svg_858" transform="matrix(-0.8260245540723474,-0.6290501120395253,0.6290501120395253,-0.8260245540723474,-23.551386247961922,439.9939927998588) " stroke="#000000" ry="6.02035" rx="6.02035" cy="162.560904" cx="12.847889" stroke-linecap="square" stroke-linejoin="round" stroke-dasharray="null" stroke-width="5" fill="#ffffff"/>
   <text id="svg_859" stroke="#000000" font-weight="normal" transform="matrix(2.182517007045644,0,0,2.182517007045644,-190.29046623383866,-224.97952643918222) " xml:space="preserve" text-anchor="middle" font-family="Monospace" font-size="24" y="255.759168" x="213.894235" stroke-linecap="null" stroke-linejoin="null" stroke-dasharray="null" stroke-width="0" fill="#000000">Nightshade</text>
  </g>
  <g id="svg_860">
   <path id="svg_861" stroke="#000000" d="m64.683598,173.581215c0,0 -15.473351,-24.157285 -15.473351,-24.157285c0,0 18.568018,-33.21627 18.453454,-33.467907c-0.114579,-0.251647 18.682582,33.845362 18.568018,33.593715c-0.11458,-0.251648 -14.327222,23.654022 -14.4418,23.402364c-0.114565,-0.251647 -7.106321,0.629113 -7.106321,0.629113z" stroke-linecap="square" stroke-linejoin="round" stroke-dasharray="null" stroke-width="5" fill="#a926b7"/>
   <ellipse id="svg_862" stroke="#000000" ry="12.888421" rx="3.772222" cy="161.571948" cx="67.897501" stroke-linecap="square" stroke-linejoin="round" stroke-dasharray="null" stroke-width="5" fill="#ffff56"/>
   <ellipse id="svg_863" stroke="#000000" rx="1.041797" cy="177.917264" cx="79.499733" stroke-linecap="square" stroke-linejoin="round" stroke-dasharray="null" stroke-width="5" fill="none"/>
   <ellipse id="svg_864" stroke="#000000" ry="6.250795" rx="6.250795" cy="182.084464" cx="68.03995" stroke-linecap="square" stroke-linejoin="round" stroke-dasharray="null" stroke-width="5" fill="#ffffff"/>
   <path id="svg_865" stroke="#000000" d="m75.669895,176.064835c0,0 18.067153,-22.284006 18.067153,-22.284006c0,0 37.369777,7.18273 37.572632,6.994858c0.202859,-0.187894 -26.254884,28.376547 -26.052019,28.188672c0.202858,-0.187894 -26.959106,-6.1635 -26.756235,-6.351388c0.202865,-0.187875 -2.831531,-6.548136 -2.831531,-6.548136z" stroke-linecap="square" stroke-linejoin="round" stroke-dasharray="null" stroke-width="5" fill="#a926b7"/>
   <ellipse id="svg_866" transform="matrix(0.3264482320517061,0.9856227265935357,-0.9856227265935357,0.3264482320517061,262.938480595643,12.946864123053786) " stroke="#000000" ry="12.413269" rx="3.633154" cy="209.046833" cx="95.523413" stroke-linecap="square" stroke-linejoin="round" stroke-dasharray="null" stroke-width="5" fill="#ffff56"/>
   <ellipse id="svg_867" transform="matrix(0.3264482320517061,0.9856227265935357,-0.9856227265935357,0.3264482320517061,262.938480595643,12.946864123053786) " stroke="#000000" rx="1.00339" cy="224.789553" cx="106.69791" stroke-linecap="square" stroke-linejoin="round" stroke-dasharray="null" stroke-width="5" fill="none"/>
   <ellipse id="svg_868" transform="matrix(0.3264482320517061,0.9856227265935357,-0.9856227265935357,0.3264482320517061,262.938480595643,12.946864123053786) " stroke="#000000" ry="6.02035" rx="6.02035" cy="228.803123" cx="95.66061" stroke-linecap="square" stroke-linejoin="round" stroke-dasharray="null" stroke-width="5" fill="#ffffff"/>
   <path id="svg_869" stroke="#000000" d="m75.71062,188.399141c0,0 27.09186,9.435577 27.09186,9.435577c0,0 5.921313,37.59029 6.166863,37.717377c0.245573,0.127083 -35.600835,-15.070764 -35.355278,-14.943669c0.245572,0.127083 -3.348176,-27.451263 -3.102605,-27.324166c0.245557,0.127095 5.19916,-4.885119 5.19916,-4.885119z" stroke-linecap="square" stroke-linejoin="round" stroke-dasharray="null" stroke-width="5" fill="#a926b7"/>
   <ellipse id="svg_870" transform="matrix(-0.8164174894070302,0.6414694773546764,-0.6414694773546764,-0.8164174894070302,324.5946448618008,335.34356676186826) " stroke="#000000" ry="12.413269" rx="3.633154" cy="247.815811" cx="104.144422" stroke-linecap="square" stroke-linejoin="round" stroke-dasharray="null" stroke-width="5" fill="#ffff56"/>
   <ellipse id="svg_871" transform="matrix(-0.8164174894070302,0.6414694773546764,-0.6414694773546764,-0.8164174894070302,324.5946448618008,335.34356676186826) " stroke="#000000" rx="1.00339" cy="263.558531" cx="115.31892" stroke-linecap="square" stroke-linejoin="round" stroke-dasharray="null" stroke-width="5" fill="none"/>
   <ellipse id="svg_872" transform="matrix(-0.8164174894070302,0.6414694773546764,-0.6414694773546764,-0.8164174894070302,324.5946448618008,335.34356676186826) " stroke="#000000" ry="6.02035" rx="6.02035" cy="267.572101" cx="104.28162" stroke-linecap="square" stroke-linejoin="round" stroke-dasharray="null" stroke-width="5" fill="#ffffff"/>
   <path id="svg_873" stroke="#000000" d="m57.581133,182.015214c0,0 -27.824276,6.986317 -27.824276,6.986317c0,0 -25.585581,-28.168598 -25.860588,-28.14002c-0.275025,0.028595 38.029984,-6.947492 37.754966,-6.918917c-0.275024,0.028594 17.868733,21.106646 17.593703,21.135228c-0.275018,0.028575 -1.663805,6.937392 -1.663805,6.937392z" stroke-linecap="square" stroke-linejoin="round" stroke-dasharray="null" stroke-width="5" fill="#a926b7"/>
   <ellipse id="svg_874" transform="matrix(0.33023612414914305,-0.9843600508423286,0.9843600508423286,0.33023612414914305,-150.0479985270531,169.76313445449233) " stroke="#000000" ry="12.413269" rx="3.633154" cy="181.776625" cx="55.512025" stroke-linecap="square" stroke-linejoin="round" stroke-dasharray="null" stroke-width="5" fill="#ffff56"/>
   <ellipse id="svg_875" transform="matrix(0.33023612414914305,-0.9843600508423286,0.9843600508423286,0.33023612414914305,-150.0479985270531,169.76313445449233) " stroke="#000000" rx="1.00339" cy="197.519345" cx="66.686523" stroke-linecap="square" stroke-linejoin="round" stroke-dasharray="null" stroke-width="5" fill="none"/>
   <ellipse id="svg_876" transform="matrix(0.33023612414914305,-0.9843600508423286,0.9843600508423286,0.33023612414914305,-150.0479985270531,169.76313445449233) " stroke="#000000" ry="6.02035" rx="6.02035" cy="201.532915" cx="55.649223" stroke-linecap="square" stroke-linejoin="round" stroke-dasharray="null" stroke-width="5" fill="#ffffff"/>
   <path id="svg_877" stroke="#000000" d="m65.329548,191.986541c0,0 -2.325753,28.593528 -2.325753,28.593528c0,0 -34.896576,15.176325 -34.957889,15.44593c-0.061302,0.269625 5.642187,-38.245433 5.580868,-37.97582c-0.061303,0.269626 25.729344,-10.138193 25.668027,-9.868566c-0.061319,0.269613 6.034747,3.804928 6.034747,3.804928z" stroke-linecap="square" stroke-linejoin="round" stroke-dasharray="null" stroke-width="5" fill="#a926b7"/>
   <ellipse id="svg_878" transform="matrix(-0.8260245540723474,-0.6290501120395253,0.6290501120395253,-0.8260245540723474,-23.551386247961922,439.9939927998588) " stroke="#000000" ry="12.413269" rx="3.633154" cy="230.331266" cx="79.709243" stroke-linecap="square" stroke-linejoin="round" stroke-dasharray="null" stroke-width="5" fill="#ffff56"/>
   <ellipse id="svg_879" transform="matrix(-0.8260245540723474,-0.6290501120395253,0.6290501120395253,-0.8260245540723474,-23.551386247961922,439.9939927998588) " stroke="#000000" rx="1.00339" cy="246.073986" cx="90.883741" stroke-linecap="square" stroke-linejoin="round" stroke-dasharray="null" stroke-width="5" fill="none"/>
   <ellipse id="svg_880" transform="matrix(-0.8260245540723474,-0.6290501120395253,0.6290501120395253,-0.8260245540723474,-23.551386247961922,439.9939927998588) " stroke="#000000" ry="6.02035" rx="6.02035" cy="250.087556" cx="79.846441" stroke-linecap="square" stroke-linejoin="round" stroke-dasharray="null" stroke-width="5" fill="#ffffff"/>
   <text id="svg_881" stroke="#000000" font-weight="normal" transform="matrix(2.182517007045644,0,0,2.182517007045644,-190.29046623383866,-224.97952643918222) " xml:space="preserve" text-anchor="middle" font-family="Monospace" font-size="24" y="203.322183" x="213.764202" stroke-linecap="null" stroke-linejoin="null" stroke-dasharray="null" stroke-width="0" fill="#000000">Nightshade</text>
  </g>
  <g id="svg_882">
   <ellipse id="svg_883" transform="matrix(0.33023612414914305,-0.9843600508423286,0.9843600508423286,0.33023612414914305,-150.0479985270531,169.76313445449233) " stroke="#000000" rx="1.00339" cy="269.493161" cx="-144.8536" stroke-linecap="square" stroke-linejoin="round" stroke-dasharray="null" stroke-width="5" fill="none"/>
   <path id="svg_884" stroke="#000000" d="m64.673558,405.581215c0,0 -15.473351,-24.157285 -15.473351,-24.157285c0,0 18.568018,-33.21627 18.453454,-33.467907c-0.114579,-0.251647 18.682582,33.845362 18.568018,33.593715c-0.11458,-0.251648 -14.327222,23.654022 -14.4418,23.402364c-0.114565,-0.251647 -7.106321,0.629113 -7.106321,0.629113z" stroke-linecap="square" stroke-linejoin="round" stroke-dasharray="null" stroke-width="5" fill="#7c0289"/>
   <ellipse id="svg_885" stroke="#000000" ry="12.888421" rx="3.772222" cy="393.571948" cx="67.887461" stroke-linecap="square" stroke-linejoin="round" stroke-dasharray="null" stroke-width="5" fill="#ffff56"/>
   <ellipse id="svg_886" stroke="#000000" rx="1.041797" cy="409.917264" cx="79.489693" stroke-linecap="square" stroke-linejoin="round" stroke-dasharray="null" stroke-width="5" fill="none"/>
   <ellipse id="svg_887" stroke="#000000" ry="6.250795" rx="6.250795" cy="414.084464" cx="68.02991" stroke-linecap="square" stroke-linejoin="round" stroke-dasharray="null" stroke-width="5" fill="#ffffff"/>
   <path id="svg_888" stroke="#000000" d="m75.659855,409.064835c0,0 18.067153,-22.284006 18.067153,-22.284006c0,0 37.369777,7.18273 37.572632,6.994858c0.202859,-0.187894 -26.254884,28.376547 -26.052019,28.188672c0.202858,-0.187894 -26.959106,-6.1635 -26.756235,-6.351388c0.202865,-0.187875 -2.831531,-6.548136 -2.831531,-6.548136z" stroke-linecap="square" stroke-linejoin="round" stroke-dasharray="null" stroke-width="5" fill="#7c0289"/>
   <ellipse id="svg_889" transform="matrix(0.3264482320517061,0.9856227265935357,-0.9856227265935357,0.3264482320517061,262.938480595643,12.946864123053786) " stroke="#000000" ry="12.413269" rx="3.633154" cy="279.31069" cx="307.635494" stroke-linecap="square" stroke-linejoin="round" stroke-dasharray="null" stroke-width="5" fill="#ffff56"/>
   <ellipse id="svg_890" transform="matrix(0.3264482320517061,0.9856227265935357,-0.9856227265935357,0.3264482320517061,262.938480595643,12.946864123053786) " stroke="#000000" rx="1.00339" cy="295.05341" cx="318.809992" stroke-linecap="square" stroke-linejoin="round" stroke-dasharray="null" stroke-width="5" fill="none"/>
   <ellipse id="svg_891" transform="matrix(0.3264482320517061,0.9856227265935357,-0.9856227265935357,0.3264482320517061,262.938480595643,12.946864123053786) " stroke="#000000" ry="6.02035" rx="6.02035" cy="299.06698" cx="307.772692" stroke-linecap="square" stroke-linejoin="round" stroke-dasharray="null" stroke-width="5" fill="#ffffff"/>
   <path id="svg_892" stroke="#000000" d="m75.70058,420.399141c0,0 27.09186,9.435577 27.09186,9.435577c0,0 5.921313,37.59029 6.166863,37.717377c0.245573,0.127083 -35.600835,-15.070764 -35.355278,-14.943669c0.245572,0.127083 -3.348176,-27.451263 -3.102605,-27.324166c0.245557,0.127095 5.19916,-4.885119 5.19916,-4.885119z" stroke-linecap="square" stroke-linejoin="round" stroke-dasharray="null" stroke-width="5" fill="#7c0289"/>
   <ellipse id="svg_893" transform="matrix(-0.8164174894070302,0.6414694773546764,-0.6414694773546764,-0.8164174894070302,324.5946448618008,335.34356676186826) " stroke="#000000" ry="12.413269" rx="3.633154" cy="72.121194" cx="242.202187" stroke-linecap="square" stroke-linejoin="round" stroke-dasharray="null" stroke-width="5" fill="#ffff56"/>
   <ellipse id="svg_894" transform="matrix(-0.8164174894070302,0.6414694773546764,-0.6414694773546764,-0.8164174894070302,324.5946448618008,335.34356676186826) " stroke="#000000" rx="1.00339" cy="87.863914" cx="253.376685" stroke-linecap="square" stroke-linejoin="round" stroke-dasharray="null" stroke-width="5" fill="none"/>
   <ellipse id="svg_895" transform="matrix(-0.8164174894070302,0.6414694773546764,-0.6414694773546764,-0.8164174894070302,324.5946448618008,335.34356676186826) " stroke="#000000" ry="6.02035" rx="6.02035" cy="91.877484" cx="242.339385" stroke-linecap="square" stroke-linejoin="round" stroke-dasharray="null" stroke-width="5" fill="#ffffff"/>
   <path id="svg_896" stroke="#000000" d="m57.571093,414.015214c0,0 -27.824276,6.986317 -27.824276,6.986317c0,0 -25.585581,-28.168598 -25.860588,-28.14002c-0.275025,0.028595 38.029984,-6.947492 37.754966,-6.918917c-0.275024,0.028594 17.868733,21.106646 17.593703,21.135228c-0.275018,0.028575 -1.663805,6.937392 -1.663805,6.937392z" stroke-linecap="square" stroke-linejoin="round" stroke-dasharray="null" stroke-width="5" fill="#7c0289"/>
   <ellipse id="svg_897" transform="matrix(0.33023612414914305,-0.9843600508423286,0.9843600508423286,0.33023612414914305,-150.0479985270531,169.76313445449233) " stroke="#000000" ry="12.413269" rx="3.633154" cy="252.837323" cx="-156.334433" stroke-linecap="square" stroke-linejoin="round" stroke-dasharray="null" stroke-width="5" fill="#ffff56"/>
   <ellipse id="svg_898" transform="matrix(0.33023612414914305,-0.9843600508423286,0.9843600508423286,0.33023612414914305,-150.0479985270531,169.76313445449233) " stroke="#000000" rx="1.00339" cy="268.580043" cx="-145.159935" stroke-linecap="square" stroke-linejoin="round" stroke-dasharray="null" stroke-width="5" fill="none"/>
   <ellipse id="svg_899" transform="matrix(0.33023612414914305,-0.9843600508423286,0.9843600508423286,0.33023612414914305,-150.0479985270531,169.76313445449233) " stroke="#000000" ry="6.02035" rx="6.02035" cy="272.593613" cx="-156.197235" stroke-linecap="square" stroke-linejoin="round" stroke-dasharray="null" stroke-width="5" fill="#ffffff"/>
   <path id="svg_900" stroke="#000000" d="m65.319508,423.986541c0,0 -2.325753,28.593528 -2.325753,28.593528c0,0 -34.896576,15.176325 -34.957889,15.44593c-0.061302,0.269625 5.642187,-38.245433 5.580868,-37.97582c-0.061303,0.269626 25.729344,-10.138193 25.668027,-9.868566c-0.061319,0.269613 6.034747,3.804928 6.034747,3.804928z" stroke-linecap="square" stroke-linejoin="round" stroke-dasharray="null" stroke-width="5" fill="#7c0289"/>
   <ellipse id="svg_901" transform="matrix(-0.8260245540723474,-0.6290501120395253,0.6290501120395253,-0.8260245540723474,-23.551386247961922,439.9939927998588) " stroke="#000000" ry="12.413269" rx="3.633154" cy="52.557288" cx="-55.660463" stroke-linecap="square" stroke-linejoin="round" stroke-dasharray="null" stroke-width="5" fill="#ffff56"/>
   <ellipse id="svg_902" transform="matrix(-0.8260245540723474,-0.6290501120395253,0.6290501120395253,-0.8260245540723474,-23.551386247961922,439.9939927998588) " stroke="#000000" rx="1.00339" cy="68.300008" cx="-44.485965" stroke-linecap="square" stroke-linejoin="round" stroke-dasharray="null" stroke-width="5" fill="none"/>
   <ellipse id="svg_903" transform="matrix(-0.8260245540723474,-0.6290501120395253,0.6290501120395253,-0.8260245540723474,-23.551386247961922,439.9939927998588) " stroke="#000000" ry="6.02035" rx="6.02035" cy="72.313578" cx="-55.523265" stroke-linecap="square" stroke-linejoin="round" stroke-dasharray="null" stroke-width="5" fill="#ffffff"/>
   <text id="svg_904" stroke="#000000" font-weight="normal" transform="matrix(2.182517007045644,0,0,2.182517007045644,-190.29046623383866,-224.97952643918222) " xml:space="preserve" text-anchor="middle" font-family="Monospace" font-size="24" y="309.621469" x="213.759602" stroke-linecap="null" stroke-linejoin="null" stroke-dasharray="null" stroke-width="0" fill="#000000">Nightshade</text>
  </g>
 </g>
</svg>